<svg width="25" height="25" viewBox="0 0 25 25" fill="none" xmlns="http://www.w3.org/2000/svg">
<path fill-rule="evenodd" clip-rule="evenodd" d="M18.2794 20.7261H8.1016C6.6997 20.7261 5.5625 19.5889 5.5625 18.187V6.45707C5.5625 5.05517 6.6997 3.91797 8.1016 3.91797H18.2794C19.6814 3.91797 20.8186 5.05517 20.8186 6.45707V18.187C20.8186 19.5889 19.6814 20.7261 18.2794 20.7261Z" fill="white"/>
<path fill-rule="evenodd" clip-rule="evenodd" d="M18.2794 20.7261H8.1016C6.6997 20.7261 5.5625 19.5889 5.5625 18.187V6.45707C5.5625 5.05517 6.6997 3.91797 8.1016 3.91797H18.2794C19.6814 3.91797 20.8186 5.05517 20.8186 6.45707V18.187C20.8186 19.5889 19.6814 20.7261 18.2794 20.7261Z" stroke="#012A72" stroke-width="1.1875" stroke-linecap="round" stroke-linejoin="round"/>
<path fill-rule="evenodd" clip-rule="evenodd" d="M10.7067 16.8749C10.7067 17.566 10.146 18.1259 9.45495 18.1259C8.76389 18.1259 8.20312 17.566 8.20312 16.8749C8.20312 16.183 8.76389 15.623 9.45495 15.623C10.146 15.623 10.7067 16.183 10.7067 16.8749Z" fill="#00B8F5"/>
<path fill-rule="evenodd" clip-rule="evenodd" d="M18.2138 16.8671C18.2138 17.5582 17.6538 18.1189 16.9619 18.1189C16.2708 18.1189 15.7109 17.5582 15.7109 16.8671C15.7109 16.176 16.2708 15.6152 16.9619 15.6152C17.6538 15.6152 18.2138 16.176 18.2138 16.8671Z" fill="#00B8F5"/>
<path d="M12.1172 6.2793H14.2027" stroke="#012A72" stroke-width="1.1875" stroke-linecap="round" stroke-linejoin="round"/>
<path d="M20.5264 13.1641H5.78906" stroke="#012A72" stroke-width="1.1875" stroke-linecap="round" stroke-linejoin="round"/>
<path fill-rule="evenodd" clip-rule="evenodd" d="M9.87991 23.0891H8.19184C7.73664 23.0891 7.36719 22.7205 7.36719 22.2644V20.2539H10.7045V22.2644C10.7045 22.7205 10.3359 23.0891 9.87991 23.0891Z" fill="#012A72"/>
<path fill-rule="evenodd" clip-rule="evenodd" d="M18.2236 23.09H16.5356C16.0796 23.09 15.7109 22.7213 15.7109 22.2653V20.5879H19.0483V22.2653C19.0483 22.7213 18.6789 23.09 18.2236 23.09Z" fill="#012A72"/>
</svg>
