<svg width="25" height="25" viewBox="0 0 25 25" fill="none" xmlns="http://www.w3.org/2000/svg">
<path fill-rule="evenodd" clip-rule="evenodd" d="M6.34219 15.4512C6.34219 16.2327 5.70394 16.8672 4.91719 16.8672C4.13044 16.8672 3.49219 16.2327 3.49219 15.4512C3.49219 14.669 4.13044 14.0352 4.91719 14.0352C5.70394 14.0352 6.34219 14.669 6.34219 15.4512Z" fill="#012A72"/>
<path fill-rule="evenodd" clip-rule="evenodd" d="M20.5922 15.4512C20.5922 16.2327 19.954 16.8672 19.1672 16.8672C18.3805 16.8672 17.7422 16.2327 17.7422 15.4512C17.7422 14.669 18.3805 14.0352 19.1672 14.0352C19.954 14.0352 20.5922 14.669 20.5922 15.4512Z" fill="#012A72"/>
<path fill-rule="evenodd" clip-rule="evenodd" d="M15.7859 13.3303C15.7859 15.3823 14.1112 17.0465 12.0457 17.0465C9.97944 17.0465 8.30469 15.3823 8.30469 13.3303C8.30469 11.2775 9.97944 9.61328 12.0457 9.61328C14.1112 9.61328 15.7859 11.2775 15.7859 13.3303Z" fill="white"/>
<path fill-rule="evenodd" clip-rule="evenodd" d="M15.7859 13.3303C15.7859 15.3823 14.1112 17.0465 12.0457 17.0465C9.97944 17.0465 8.30469 15.3823 8.30469 13.3303C8.30469 11.2775 9.97944 9.61328 12.0457 9.61328C14.1112 9.61328 15.7859 11.2775 15.7859 13.3303Z" stroke="#012A72" stroke-width="1.10054" stroke-linecap="round" stroke-linejoin="round"/>
<path fill-rule="evenodd" clip-rule="evenodd" d="M9.89062 13.1727C9.89062 11.9922 10.8536 11.0352 12.0416 11.0352C13.2296 11.0352 14.1926 11.9922 14.1926 13.1727" fill="#00B8F5"/>
<path d="M12.0469 5.8125V9.549" stroke="#012A72" stroke-width="1.10054" stroke-linecap="round" stroke-linejoin="round"/>
<path d="M8.352 14.2168H1.3125" stroke="#012A72" stroke-width="1.10054" stroke-linecap="round" stroke-linejoin="round"/>
<path d="M22.687 14.2168H15.7188" stroke="#012A72" stroke-width="1.10054" stroke-linecap="round" stroke-linejoin="round"/>
</svg>
