<svg width="25" height="25" viewBox="0 0 25 25" fill="none" xmlns="http://www.w3.org/2000/svg">
<path d="M19.722 10.7321C19.722 12.5284 19.0738 14.1607 17.996 15.4181C16.6683 16.9723 14.7002 17.9565 12.4978 17.9565H12.4587C10.2719 17.9408 8.31935 16.9646 6.99946 15.4181C5.92167 14.1607 5.27344 12.5284 5.27344 10.7321C5.27344 8.9358 5.92167 7.3035 6.99946 6.04608C8.31935 4.49969 10.2719 3.52343 12.4587 3.50781H12.4978C14.7002 3.50781 16.6683 4.49187 17.996 6.04608C19.0738 7.3035 19.722 8.9358 19.722 10.7321Z" stroke="#002E6E" stroke-width="1.12465" stroke-miterlimit="10" stroke-linecap="round" stroke-linejoin="round"/>
<path d="M19.7231 10.7321C19.7231 12.5284 19.0748 14.1607 17.9971 15.4181C16.6694 16.9723 14.7012 17.9565 12.4988 17.9565C11.8271 17.5034 11.2258 16.9723 10.7024 16.3553C9.41381 14.848 8.63281 12.8877 8.63281 10.7321C8.63281 8.57654 9.41381 6.61622 10.7024 5.10888C11.2258 4.49188 11.8271 3.96079 12.4988 3.50781C14.7012 3.50781 16.6694 4.49187 17.9971 6.04608C19.0748 7.3035 19.7231 8.9358 19.7231 10.7321Z" stroke="#002E6E" stroke-width="1.12465" stroke-miterlimit="10" stroke-linecap="round" stroke-linejoin="round"/>
<path d="M19.7231 10.7321C19.7231 12.5284 19.0748 14.1607 17.9971 15.4181C16.6694 16.9723 14.7012 17.9565 12.4988 17.9565C12.491 17.9487 12.491 17.9487 12.4832 17.9408C11.8193 17.4956 11.2179 16.9646 10.7024 16.3553C9.41381 14.848 8.63281 12.8877 8.63281 10.7321C8.63281 8.57654 9.41381 6.61622 10.7024 5.10888C11.2179 4.49969 11.8193 3.9686 12.4832 3.52343C12.491 3.51563 12.491 3.51563 12.4988 3.50781C14.7012 3.50781 16.6694 4.49187 17.9971 6.04608C19.0748 7.3035 19.7231 8.9358 19.7231 10.7321Z" stroke="#0CC8F4" stroke-width="1.12465" stroke-miterlimit="10" stroke-linecap="round" stroke-linejoin="round"/>
<path d="M18.1215 6.82031C16.6141 8.10897 14.6538 8.88997 12.4983 8.88997C10.3427 8.88997 8.38233 8.10897 6.875 6.82031" stroke="#0CC8F4" stroke-width="1.12465" stroke-miterlimit="10" stroke-linecap="round" stroke-linejoin="round"/>
<path d="M16.3325 10.7321C16.3325 12.8877 15.5515 14.848 14.255 16.3553C13.7395 16.9646 13.1382 17.4956 12.4821 17.9408C12.4743 17.9408 12.4665 17.9487 12.4587 17.9565C10.2719 17.9408 8.31935 16.9646 6.99946 15.4181C5.92167 14.1607 5.27344 12.5284 5.27344 10.7321C5.27344 8.9358 5.92167 7.3035 6.99946 6.04608C8.31935 4.49969 10.2719 3.52343 12.4587 3.50781C12.4665 3.51563 12.4743 3.52343 12.4821 3.52343C13.1382 3.9686 13.7395 4.49969 14.255 5.10888C15.5515 6.61622 16.3325 8.57654 16.3325 10.7321Z" stroke="#0CC8F4" stroke-width="1.12465" stroke-miterlimit="10" stroke-linecap="round" stroke-linejoin="round"/>
<path d="M23.6254 13.6457H17.7835C17.596 11.4511 16.0262 9.60789 13.9097 9.03775V6.25739C13.9097 5.50761 13.2927 4.89062 12.5429 4.89062C11.7932 4.89062 11.1761 5.50761 11.1761 6.25739V9.02994C9.05186 9.60007 7.48984 11.4433 7.30241 13.6379H1.36676C0.616995 13.6457 0 14.2549 0 15.0125C0 15.7701 0.616995 16.3792 1.36676 16.3792H2.85848C2.89753 17.5819 3.89722 18.5582 5.1234 18.5582C6.34958 18.5582 7.30241 18.363 7.34927 17.1602L7.62261 17.2617C8.49734 19.0425 10.5357 19.3236 12.5507 19.3236C14.5657 19.3236 17.0103 18.9643 17.885 17.1836C17.9241 18.3864 18.7442 18.5582 19.9703 18.5582C21.1965 18.5582 22.1883 17.5897 22.2352 16.3792H23.6332C24.383 16.3792 25 15.7622 25 15.0125C25 14.2627 24.3752 13.6457 23.6254 13.6457Z" fill="white"/>
<path fill-rule="evenodd" clip-rule="evenodd" d="M6.60845 16.2926C6.60845 17.1047 5.94459 17.7686 5.12454 17.7686C4.30448 17.7686 3.64062 17.1047 3.64062 16.2926C3.64062 15.4803 4.30448 14.8164 5.12454 14.8164C5.94459 14.8164 6.60845 15.4803 6.60845 16.2926Z" fill="#07448E"/>
<path fill-rule="evenodd" clip-rule="evenodd" d="M21.4445 16.2926C21.4445 17.1047 20.7806 17.7686 19.9605 17.7686C19.1404 17.7686 18.4766 17.1047 18.4766 16.2926C18.4766 15.4803 19.1404 14.8164 19.9605 14.8164C20.7806 14.8164 21.4445 15.4803 21.4445 16.2926Z" fill="#07448E"/>
<path fill-rule="evenodd" clip-rule="evenodd" d="M16.4429 14.0906C16.4429 16.2305 14.7012 17.9566 12.5457 17.9566C10.3901 17.9566 8.64844 16.2227 8.64844 14.0906C8.64844 11.9506 10.3901 10.2168 12.5457 10.2168C14.6934 10.2168 16.4429 11.9506 16.4429 14.0906Z" fill="white" stroke="#07448E" stroke-width="1.12465" stroke-linecap="round" stroke-linejoin="round"/>
<path d="M16.4429 14.0906C16.4429 16.2305 14.7012 17.9566 12.5457 17.9566C10.3901 17.9566 8.64844 16.2227 8.64844 14.0906C8.64844 11.9506 10.3901 10.2168 12.5457 10.2168C14.6934 10.2168 16.4429 11.9506 16.4429 14.0906Z" stroke="#07448E" stroke-width="1.12465" stroke-linecap="round" stroke-linejoin="round"/>
<path fill-rule="evenodd" clip-rule="evenodd" d="M10.3047 13.9271C10.3047 12.7009 11.3043 11.7012 12.5462 11.7012C13.788 11.7012 14.7877 12.7009 14.7877 13.9271" fill="#0CC8F4"/>
<path d="M12.5469 6.25781V10.1472" stroke="#07448E" stroke-width="1.12465" stroke-linecap="round" stroke-linejoin="round"/>
<path d="M8.70083 15.0117H1.36719" stroke="#07448E" stroke-width="1.12465" stroke-linecap="round" stroke-linejoin="round"/>
<path d="M23.6228 15.0117H16.3672" stroke="#07448E" stroke-width="1.12465" stroke-linecap="round" stroke-linejoin="round"/>
</svg>
