<svg width="1440" height="588" viewBox="0 0 1440 588" fill="none" xmlns="http://www.w3.org/2000/svg">
<rect width="1440" height="587.397" fill="#E8ECF5"/>
<path d="M0 176.3V352.569L86.75 404.204L173.5 455.889L284.7 420.615C345.9 401.202 396.2 385.341 396.55 385.341C396.9 385.341 429 392.896 467.95 402.152C506.9 411.409 539.2 419.014 539.75 419.014C540.3 419.064 583.35 391.695 638.6 356.121L736.5 293.179L784.6 326.251L832.75 359.323L834 357.922C834.95 356.922 965.85 195.963 966.25 195.362C966.3 195.262 1012.35 216.026 1068.65 241.494L1170.95 287.725L1247.85 241.744C1290.1 216.427 1325 195.412 1325.3 195.112C1325.9 194.512 1439.5 0.63075 1439.5 0.280513C1439.5 0.180445 1115.6 0.0803778 719.75 0.0803778H0V176.3Z" fill="#F5F7FA"/>
</svg>
