<svg width="140" height="21" viewBox="0 0 140 21" fill="none" xmlns="http://www.w3.org/2000/svg">
<g clip-path="url(#clip0_2167_3064)">
<path d="M64.4102 6.88223C63.8233 5.22331 62.2243 4.03516 60.3474 4.03516H60.3077C59.0858 4.03516 57.9857 4.53676 57.2032 5.3438C56.4207 4.53676 55.3207 4.03516 54.0987 4.03516H54.059C52.9845 4.03516 52.0064 4.42467 51.2522 5.06638V4.74132C51.2267 4.41626 50.9574 4.15846 50.62 4.15846H47.7395C47.3879 4.15846 47.1016 4.44148 47.1016 4.78896V20.2517C47.1016 20.5992 47.3879 20.8822 47.7395 20.8822H50.62C50.9404 20.8822 51.2069 20.644 51.2494 20.3386V9.24172C51.2494 9.20529 51.2494 9.16606 51.2494 9.12963C51.2976 8.63364 51.6633 8.22731 52.2417 8.17687H52.7747C53.0185 8.19649 53.2227 8.28055 53.3814 8.40946C53.6338 8.60841 53.7727 8.90825 53.7727 9.24172L53.784 20.2854C53.784 20.6328 54.0704 20.9159 54.4219 20.9159H57.3025C57.6427 20.9159 57.9205 20.6496 57.9375 20.3162V9.22771C57.9347 8.86062 58.1048 8.53275 58.4053 8.3366C58.5528 8.24132 58.7285 8.17967 58.9355 8.16006H59.4657C60.0866 8.2133 60.4636 8.68127 60.4636 9.22491L60.475 20.2545C60.475 20.602 60.7613 20.885 61.1129 20.885H63.9934C64.345 20.885 64.6313 20.602 64.6313 20.2545V8.38984C64.6313 7.58279 64.5378 7.23812 64.413 6.88223" fill="#00BBF0"/>
<path d="M44.9118 4.19829H43.2646V1.56138V1.55578C43.2646 1.23632 43.0038 0.978516 42.6834 0.978516C42.6466 0.978516 42.6097 0.98412 42.5728 0.989725C40.7442 1.48572 41.1127 3.98532 37.7786 4.19829H37.4554C37.4072 4.19829 37.3618 4.2039 37.3165 4.2151C37.0329 4.27675 36.8203 4.52896 36.8203 4.82599V7.67307C36.8203 8.02055 37.1067 8.30358 37.4582 8.30358H39.1962V20.3756C39.1962 20.7203 39.4769 21.0005 39.8227 21.0005H42.6721C43.0208 21.0005 43.3015 20.7203 43.3015 20.3756V8.30638H44.9147C45.2662 8.30638 45.5498 8.02335 45.5498 7.67587V4.8288C45.5498 4.48132 45.2662 4.20109 44.9147 4.20109" fill="#00BBF0"/>
<path d="M34.5481 4.19727H31.6676C31.316 4.19727 31.0297 4.48029 31.0297 4.82497V10.7125C31.024 11.0768 30.7263 11.3682 30.3549 11.3682H29.1471C28.7729 11.3682 28.4724 11.0684 28.4724 10.7013L28.461 4.82497C28.461 4.47749 28.1747 4.19727 27.8231 4.19727H24.9426C24.591 4.19727 24.3047 4.48029 24.3047 4.82497V11.2757C24.3047 13.7277 26.0738 15.4735 28.5546 15.4735C28.5546 15.4735 30.4173 15.4735 30.474 15.4847C30.8114 15.5239 31.0722 15.8013 31.0722 16.1432C31.0722 16.4851 30.817 16.7597 30.4825 16.8017C30.4683 16.8017 30.4513 16.8074 30.4343 16.8102L26.2213 16.827C25.8697 16.827 25.5833 17.11 25.5833 17.4575V20.3046C25.5833 20.652 25.8697 20.9351 26.2213 20.9351H30.9304C33.4112 20.9351 35.1803 19.1893 35.1803 16.7373V4.82777C35.1803 4.48029 34.8968 4.20007 34.5424 4.20007" fill="#172B75"/>
<path d="M6.92062 4.19727H0.623734C0.277845 4.19727 0 4.47469 0 4.81376V7.60199V7.6132C0 7.63281 0 7.64683 0 7.66084V20.2849C0 20.6296 0.260834 20.907 0.581207 20.9154H3.51559C3.86715 20.9154 4.1535 20.6324 4.1535 20.2849L4.16484 15.9583H6.92062C9.2256 15.9583 10.8331 14.3778 10.8331 12.0884V8.07277C10.8331 5.78333 9.2256 4.19727 6.92062 4.19727ZM6.66829 9.41504V11.172C6.66829 11.5391 6.36493 11.839 5.99352 11.839H4.16484V8.31936H5.99352C6.36493 8.31936 6.66829 8.6192 6.66829 8.9863V9.41504Z" fill="#172B75"/>
<path d="M18.1598 4.21484H14.165C13.8107 4.21484 13.5243 4.48106 13.5243 4.80612V5.93542V5.94943V7.47385C13.5243 7.81853 13.8277 8.09875 14.2047 8.09875H18.0095C18.31 8.14639 18.5482 8.36216 18.5822 8.70123V9.06833C18.5482 9.39058 18.3129 9.62597 18.0265 9.65399H16.144C13.6377 9.65399 11.8516 11.2989 11.8516 13.6108V16.923C11.8516 19.2208 13.3854 20.8546 15.8746 20.8546H21.0998C22.0383 20.8546 22.7953 20.154 22.7953 19.2881V8.48826C22.7953 5.86817 21.4287 4.21484 18.1655 4.21484M18.6248 16.0992V16.5447C18.6248 16.5811 18.6191 16.6148 18.6134 16.6484C18.6077 16.6792 18.5992 16.71 18.5879 16.7409C18.4972 16.9903 18.2477 17.1696 17.9471 17.1696H16.7479C16.3736 17.1696 16.0703 16.8894 16.0703 16.5447V15.9871V14.5579V14.1124C16.0703 13.7649 16.3765 13.4847 16.7479 13.4847H17.9471C18.3214 13.4847 18.6276 13.7649 18.6276 14.1124V16.102L18.6248 16.0992Z" fill="#172B75"/>
<path d="M77.4505 7.9888H74.3573V15.9976C74.3573 17.4688 75.103 17.7938 76.03 17.7938C76.4893 17.7938 76.9089 17.7042 77.1131 17.6537L77.7368 20.5092C77.3399 20.6409 76.6141 20.8427 75.5622 20.8735C72.7866 20.9548 70.6432 19.5228 70.6631 16.6057V7.9916H68.4375V5.16694H70.6631V1.45117H74.3573V5.16414H77.4505V7.9888Z" fill="black"/>
<path d="M79.6797 5.16363H83.2605V7.7445H83.4249C83.9976 5.94826 85.4974 4.93945 87.2921 4.93945C87.7003 4.93945 88.2816 4.97868 88.6189 5.04033V8.40022C88.3014 8.29934 87.5274 8.18725 86.9037 8.18725C84.8737 8.18725 83.3739 9.57997 83.3739 11.5471V20.6544H79.6797V5.16363Z" fill="black"/>
<path d="M89.1825 16.31C89.1825 12.8212 92.0914 11.9217 95.1307 11.5994C97.895 11.308 99.0092 11.2576 99.0092 10.2067V10.1451C99.0092 8.62347 98.0707 7.75477 96.3555 7.75477C94.5495 7.75477 93.509 8.6627 93.1404 9.72195L89.69 9.23716C90.5065 6.4125 93.0383 4.96094 96.3328 4.96094C99.3239 4.96094 102.701 6.19112 102.701 10.2852V20.6535H99.1481V18.5266H99.0262C98.3514 19.8268 96.8828 20.9673 94.4247 20.9673C91.4336 20.9673 89.1797 19.3533 89.1797 16.3072L89.1825 16.31ZM99.0205 15.0994V13.2752C98.5414 13.6591 96.6021 13.9001 95.6325 14.0318C93.9796 14.2644 92.7435 14.85 92.7435 16.2512C92.7435 17.6523 93.8463 18.2884 95.3858 18.2884C97.6114 18.2884 99.0177 16.8256 99.0177 15.1022L99.0205 15.0994Z" fill="black"/>
<path d="M113.407 20.6557H109.325L103.742 5.16211H107.68L111.284 16.6709H111.448L115.06 5.16211H118.99L113.407 20.6557Z" fill="black"/>
<path d="M119.469 13.0025C119.469 8.2219 122.397 4.96289 126.888 4.96289C130.747 4.96289 134.053 7.3532 134.053 12.7896V13.9104H123.135C123.166 16.5642 124.748 18.1166 127.135 18.1166C128.728 18.1166 129.95 17.4301 130.452 16.1186L133.903 16.5025C133.25 19.1955 130.738 20.9609 127.087 20.9609C122.363 20.9609 119.474 17.8644 119.474 13.0025H119.469ZM130.509 11.4501C130.489 9.34279 129.06 7.80997 126.937 7.80997C124.813 7.80997 123.254 9.4745 123.14 11.4501H130.509Z" fill="black"/>
<path d="M139.999 20.6553H136.305V0H139.999V20.6553Z" fill="black"/>
</g>
<defs>
<clipPath id="clip0_2167_3064">
<rect width="140" height="21" fill="white"/>
</clipPath>
</defs>
</svg>
