<svg width="25" height="25" viewBox="0 0 25 25" fill="none" xmlns="http://www.w3.org/2000/svg">
<path d="M5.54342 6.95904C5.45506 5.36687 6.72231 4.02734 8.3169 4.02734H16.6807C18.2752 4.02734 19.5425 5.36687 19.4541 6.95904L19.1329 12.7484C18.9375 16.2695 16.0253 19.0246 12.4988 19.0246C8.97225 19.0246 6.06009 16.2695 5.8647 12.7484L5.54342 6.95904Z" fill="white"/>
<path d="M5.80469 6.92595L6.26595 15.2707L7.77536 16.7593L11.17 19.0679C11.17 19.0679 7.86668 15.1483 7.17224 10.2872C6.47778 5.42608 8.22515 4.0332 8.22515 4.0332L6.21177 5.2937L5.80469 6.92595Z" fill="#00B8F5"/>
<path d="M19.4825 6.92595L19.0212 15.2707L17.5118 16.7593L14.1172 19.0679C14.1172 19.0679 17.4205 15.1483 18.115 10.2872C18.8094 5.42608 17.062 4.0332 17.062 4.0332L19.0754 5.2937L19.4825 6.92595Z" fill="#00B8F5"/>
<path d="M5.54342 6.95904C5.45506 5.36687 6.72231 4.02734 8.3169 4.02734H16.6807C18.2752 4.02734 19.5425 5.36687 19.4541 6.95904L19.1329 12.7484C18.9375 16.2695 16.0253 19.0246 12.4988 19.0246C8.97225 19.0246 6.06009 16.2695 5.8647 12.7484L5.54342 6.95904Z" stroke="#012A72" stroke-linejoin="round"/>
<path d="M13.8863 5.1428H11.1085C10.7266 5.1428 10.4141 4.8303 10.4141 4.44835C10.4141 4.06641 10.7266 3.75391 11.1085 3.75391H13.8863C14.2682 3.75391 14.5807 4.06641 14.5807 4.44835C14.5807 4.83724 14.2682 5.1428 13.8863 5.1428Z" fill="#012A72"/>
<path d="M5.97656 20.9414H19.0171" stroke="#012A72" stroke-linejoin="round"/>
<path d="M7.8859 7.04051C7.84771 6.63317 8.1682 6.28125 8.57736 6.28125H16.4272C16.8363 6.28125 17.1567 6.63317 17.1185 7.04051L16.8581 9.81829C16.8247 10.1752 16.5251 10.4479 16.1667 10.4479H8.83778C8.47938 10.4479 8.17979 10.1752 8.14639 9.81829L7.8859 7.04051Z" stroke="#012A72" stroke-linejoin="round"/>
<path d="M13.6104 12.3711H12.0312" stroke="#012A72" stroke-linecap="round" stroke-linejoin="round"/>
<path d="M16.8047 17.5215L20.057 22.1627" stroke="#012A72" stroke-miterlimit="10" stroke-linecap="round" stroke-linejoin="round"/>
<path d="M8.2165 17.5215L4.94531 22.1731" stroke="#012A72" stroke-miterlimit="10" stroke-linecap="round" stroke-linejoin="round"/>
</svg>
