<svg width="34" height="34" viewBox="0 0 34 34" fill="none" xmlns="http://www.w3.org/2000/svg">
<g clip-path="url(#clip0_2163_3060)">
<path d="M17 34C26.3888 34 34 26.3888 34 17C34 7.61116 26.3888 0 17 0C7.61116 0 0 7.61116 0 17C0 26.3888 7.61116 34 17 34Z" fill="#002970"/>
<path d="M17.0036 22.6655C21.3851 22.6655 24.937 19.1136 24.937 14.7322C24.937 10.3507 21.3851 6.79883 17.0036 6.79883C12.6222 6.79883 9.07031 10.3507 9.07031 14.7322C9.07031 19.1136 12.6222 22.6655 17.0036 22.6655Z" fill="white"/>
<path fill-rule="evenodd" clip-rule="evenodd" d="M4.07812 28.0485C6.58313 23.4899 11.4303 20.4004 16.999 20.4004C22.5678 20.4004 27.415 23.4899 29.92 28.0485C26.802 31.6915 22.1702 34.0004 16.999 34.0004C11.8279 34.0004 7.19607 31.6915 4.07812 28.0485Z" fill="white"/>
</g>
<defs>
<clipPath id="clip0_2163_3060">
<rect width="34" height="34" fill="white"/>
</clipPath>
</defs>
</svg>
